<svg width="61" height="62" viewBox="0 0 61 62" fill="none" xmlns="http://www.w3.org/2000/svg">
<circle cx="30.501" cy="31.1465" r="29" stroke="#FEFEFE" stroke-width="3"/>
<path d="M33.647 12.6523L33.647 22.6918C33.647 22.8326 44.4632 22.6918 44.4632 22.6918L44.4632 12.6523H33.647Z" stroke="white" stroke-width="2.6"/>
<path d="M48.0925 29.0977C48.0925 34.0571 44.2792 37.9677 39.7075 37.9677C35.1357 37.9677 31.3225 34.0571 31.3225 29.0977C31.3225 24.1384 35.1357 20.2277 39.7075 20.2277C44.2792 20.2277 48.0925 24.1384 48.0925 29.0977Z" fill="black" stroke="white" stroke-width="2.6"/>
<path d="M12.9238 24.4395V40.8173C12.9238 38.7552 23.3586 37.7445 23.3586 31.9111V24.4395H12.9238Z" stroke="white" stroke-width="2.6"/>
<path d="M29.7009 41.9884C29.7009 46.9477 25.8876 50.8584 21.3159 50.8584C16.7441 50.8584 12.9309 46.9477 12.9309 41.9884C12.9309 37.029 16.7441 33.1184 21.3159 33.1184C25.8876 33.1184 29.7009 37.029 29.7009 41.9884Z" fill="black" stroke="white" stroke-width="2.6"/>
</svg>
